# xmcd CD database file
#
# Track frame offsets:
#	150
#	6275
#	31700
#	41569
#	63250
#	80032
#	99077
#	107339
#
# Disc length: 1698 seconds
#
# Revision: 0
# Processed by: cddbd v1.5.1PL0 Copyright (c) Steve Scherf et al.
# Submitted via: CDex 1.51
#
DISCID=5006a008
DTITLE=TOMOVSKY - 散らかったユウウツと赤い月
DYEAR=2002
DGENRE=Rock
TTITLE0=inst I 散らかったユウウツ
TTITLE1=アイタイヒトトダケ
TTITLE2=PATROL
TTITLE3=キミのユウウツをつくってるのはオレかも
TTITLE4=inst II 赤い月
TTITLE5=ワリとスグに
TTITLE6=ウチトケヨウ
TTITLE7=ユウウツに慣れちゃいけない
EXTD=YEAR: 2002
EXTT0=
EXTT1=
EXTT2=
EXTT3=
EXTT4=
EXTT5=
EXTT6=
EXTT7=
PLAYORDER=
